<svg  viewBox="0 0 21 23" fill="none" xmlns="http://www.w3.org/2000/svg">
<path fill-rule="evenodd" clip-rule="evenodd" d="M6.64001 5.64C6.64001 3.62968 8.2697 2 10.28 2C12.2903 2 13.92 3.62968 13.92 5.64C13.92 7.65032 12.2903 9.28 10.28 9.28C8.2697 9.28 6.64001 7.65032 6.64001 5.64ZM10.28 0C7.16513 0 4.64001 2.52511 4.64001 5.64C4.64001 8.75489 7.16513 11.28 10.28 11.28C13.3949 11.28 15.92 8.75489 15.92 5.64C15.92 2.52511 13.3949 0 10.28 0ZM5.64 13.92C4.14418 13.92 2.70962 14.5142 1.65192 15.5719C0.594212 16.6296 0 18.0642 0 19.56V21.88C0 22.4323 0.447715 22.88 1 22.88C1.55228 22.88 2 22.4323 2 21.88V19.56C2 18.5946 2.3835 17.6688 3.06613 16.9861C3.74876 16.3035 4.67461 15.92 5.64 15.92H14.92C15.8854 15.92 16.8112 16.3035 17.4939 16.9861C18.1765 17.6688 18.56 18.5946 18.56 19.56V21.88C18.56 22.4323 19.0077 22.88 19.56 22.88C20.1123 22.88 20.56 22.4323 20.56 21.88V19.56C20.56 18.0642 19.9658 16.6296 18.9081 15.5719C17.8504 14.5142 16.4158 13.92 14.92 13.92H5.64Z" fill="#141414"/>
</svg>
