<svg  viewBox="0 0 28 27" fill="none" xmlns="http://www.w3.org/2000/svg">
<path d="M1.25 12.8542C1.24513 14.559 1.68199 16.2408 2.525 17.7625C3.52455 19.586 5.06119 21.1198 6.96278 22.192C8.86437 23.2642 11.0558 23.8326 13.2917 23.8333C15.1615 23.8378 17.006 23.4395 18.675 22.6708L26.75 25.125L24.0583 17.7625C24.9013 16.2408 25.3382 14.559 25.3333 12.8542C25.3325 10.8156 24.7091 8.81752 23.5331 7.08372C22.3572 5.34991 20.675 3.94886 18.675 3.03751C17.006 2.26888 15.1615 1.87056 13.2917 1.87501H12.5833C9.63051 2.02354 6.84152 3.15991 4.75038 5.06653C2.65925 6.97316 1.41291 9.51606 1.25 12.2083V12.8542Z" stroke="#FFAA47" stroke-width="2" stroke-linecap="round" stroke-linejoin="round"/>
</svg>
