<svg  viewBox="0 0 28 23" fill="none" xmlns="http://www.w3.org/2000/svg">
<path d="M19.56 21.88V19.56C19.56 18.3294 19.0711 17.1492 18.201 16.279C17.3308 15.4089 16.1506 14.92 14.92 14.92H5.64C4.4094 14.92 3.22919 15.4089 2.35902 16.279C1.48886 17.1492 1 18.3294 1 19.56V21.88" stroke="#141414" stroke-width="2" stroke-linecap="round" stroke-linejoin="round"/>
<path d="M10.2801 10.28C12.8427 10.28 14.9201 8.2026 14.9201 5.64C14.9201 3.0774 12.8427 1 10.2801 1C7.71754 1 5.64014 3.0774 5.64014 5.64C5.64014 8.2026 7.71754 10.28 10.2801 10.28Z" stroke="#141414" stroke-width="2" stroke-linecap="round" stroke-linejoin="round"/>
<path d="M26.52 21.88V19.56C26.5193 18.5319 26.1771 17.5332 25.5472 16.7207C24.9174 15.9082 24.0355 15.3278 23.04 15.0708" stroke="#141414" stroke-width="2" stroke-linecap="round" stroke-linejoin="round"/>
<path d="M18.3999 1.15082C19.398 1.40637 20.2826 1.98683 20.9144 2.8007C21.5461 3.61456 21.889 4.61554 21.889 5.64582C21.889 6.6761 21.5461 7.67707 20.9144 8.49094C20.2826 9.3048 19.398 9.88527 18.3999 10.1408" stroke="#141414" stroke-width="2" stroke-linecap="round" stroke-linejoin="round"/>
</svg>
