<svg  viewBox="0 0 19 20" fill="none" xmlns="http://www.w3.org/2000/svg">
<path fill-rule="evenodd" clip-rule="evenodd" d="M2.17334 9.07116C2.17334 5.65397 4.94352 2.88379 8.36071 2.88379C11.7779 2.88379 14.5481 5.65397 14.5481 9.07116C14.5481 10.7358 13.8907 12.2469 12.8214 13.359C12.7896 13.3839 12.7589 13.411 12.7296 13.4403C12.7003 13.4696 12.6733 13.5003 12.6484 13.5321C11.5363 14.6012 10.0252 15.2585 8.36071 15.2585C4.94352 15.2585 2.17334 12.4883 2.17334 9.07116ZM13.3997 15.5246C12.0103 16.611 10.2611 17.2585 8.36071 17.2585C3.83895 17.2585 0.17334 13.5929 0.17334 9.07116C0.17334 4.5494 3.83895 0.883789 8.36071 0.883789C12.8825 0.883789 16.5481 4.5494 16.5481 9.07116C16.5481 10.9717 15.9005 12.721 14.814 14.1104L18.052 17.3484C18.4425 17.739 18.4425 18.3721 18.052 18.7627C17.6615 19.1532 17.0283 19.1532 16.6378 18.7627L13.3997 15.5246Z" fill="#5C5C5C"/>
</svg>
