<svg  viewBox="0 0 26 23" fill="none" xmlns="http://www.w3.org/2000/svg">
<path d="M25 10.9167C25.0046 12.4565 24.5934 13.9755 23.8 15.35C22.8592 16.997 21.413 18.3824 19.6232 19.3508C17.8335 20.3193 15.771 20.8326 13.6666 20.8333C11.9068 20.8374 10.1708 20.4776 8.59999 19.7833L1 22L3.53333 15.35C2.73991 13.9755 2.32874 12.4565 2.33333 10.9167C2.33415 9.0754 2.92081 7.27068 4.02762 5.70467C5.13443 4.13865 6.71766 2.87319 8.59999 2.05003C10.1708 1.35579 11.9068 0.996018 13.6666 1.00003H14.3333C17.1124 1.13419 19.7374 2.16059 21.7055 3.8827C23.6736 5.60481 24.8466 7.90162 25 10.3334V10.9167Z" stroke="#5C5C5C" stroke-width="2" stroke-linecap="round" stroke-linejoin="round"/>
</svg>